:SAMPLES-PER-SECOND 30
:FRAME-RANGE 1-663
:FULLY-SPECIFIED
:DEGREES
42
root  66.9825 38.6812 51.7454 -1.67759 -43.8039 7.0211
RightUpLeg  -3.31106 -3.26242 -14.0057
RightLeg  43.4986 -16.0974 -15.994
RightFoot  0.100835 -1.20804 12.024
RightToes  2.91037e-010 0 -3.6325e-017
Spine  6.93327 0.523376 -5.3154
Spine1  -0.572345 0.769331 -4.62363
HEad  16.7975 -3.81101 -1.73506
LeftShoulder1  1.27572 0.178054 -32.3013
LeftArm  15.0921 11.0237 -30.0079
LeftForeArm  2.38634 -8.19163 -16.3201
LeftHand  0.394848 -1.4358 -6.60687
RightShoulder  6.7355 8.57886 48.8413
RightArm  23.2886 -4.33625 17.1846
RightForeArm  12.992 6.49443 16.217
RightHand  0.500234 4.71971 5.43853
LeftUpLeg  -16.6251 17.4292 -4.86045
LeftLeg  19.924 -0.54109 -0.952597
LeftFoot  -8.09682 0.209127 -5.66848
LeftToes  -4.9116e-011 5.71383e-011 -3.31847e-011
43
root  66.7251 38.7348 52.5826 -2.07734 -44.0374 7.2006
RightUpLeg  -7.94226 -2.30837 -13.5576
RightLeg  48.581 -8.98378 -11.0608
RightFoot  -1.13856 -1.25944 13.9564
RightToes  2.91037e-010 0 -3.6325e-017
Spine  7.36816 0.280149 -6.48022
Spine1  -0.598828 0.300186 -4.63953
HEad  16.548 -2.82754 -2.00547
LeftShoulder1  1.31574 0.0767831 -32.3371
LeftArm  17.544 9.9612 -29.5693
LeftForeArm  0.836692 -9.44288 -15.8689
LeftHand  0.38887 -1.50945 -6.42805
RightShoulder  6.57495 8.28057 48.8856
RightArm  25.3569 -4.65934 17.6871
RightForeArm  11.8513 7.67736 15.8312
RightHand  0.486627 4.69775 5.29579
LeftUpLeg  -14.3326 15.1386 -4.13498
LeftLeg  19.3969 2.01051 -1.73547
LeftFoot  -9.65785 0.144596 -5.90139
LeftToes  -4.9116e-011 5.71383e-011 -3.31847e-011
44
root  66.4013 38.7625 53.4306 -2.35726 -44.3949 7.24906
RightUpLeg  -12.4029 -1.96904 -12.5017
RightLeg  51.9265 -5.12514 -7.34067
RightFoot  -2.54332 -1.25411 15.9793
RightToes  2.91037e-010 0 -3.6325e-017
Spine  7.54275 0.052636 -7.60892
Spine1  -0.587274 -0.12577 -4.48565
HEad  16.186 -2.03991 -2.19896
LeftShoulder1  1.32534 0.0557949 -32.382
LeftArm  18.229 8.16533 -29.2475
LeftForeArm  0.885486 -9.37578 -15.9538
LeftHand  0.360549 -1.43644 -6.02206
RightShoulder  6.49657 8.11912 48.9748
RightArm  26.8334 -5.05766 18.0574
RightForeArm  10.7 8.78585 15.3791
RightHand  0.486325 4.67867 5.3036
LeftUpLeg  -12.1044 12.0453 -3.40775
LeftLeg  18.8498 5.28447 -2.2872
LeftFoot  -11.1983 0.0749616 -6.33872
LeftToes  -4.9116e-011 5.71383e-011 -3.31847e-011
45
root  66.0411 38.8372 54.3053 -1.98277 -44.6206 6.56524
RightUpLeg  -16.4458 -2.68126 -10.4352
RightLeg  52.9474 -5.50344 -8.1413
RightFoot  -4.12747 -1.01807 15.6119
RightToes  2.91037e-010 0 -3.6325e-017
Spine  7.64524 -0.31606 -8.08483
Spine1  -0.973506 -0.608226 -3.8564
HEad  15.9109 -1.56323 -2.06233
LeftShoulder1  1.3308 0.0198893 -32.1433
LeftArm  16.022 6.20999 -29.3459
LeftForeArm  2.52845 -8.18961 -16.3847
LeftHand  0.334629 -1.2331 -5.77347
RightShoulder  6.43107 7.96837 49.119
RightArm  27.8757 -5.41307 18.307
RightForeArm  9.9275 9.59437 14.9956
RightHand  0.464885 4.63211 5.08383
LeftUpLeg  -9.91386 10.1218 -2.74179
LeftLeg  17.8316 7.3639 -2.59033
LeftFoot  -12.2679 0.020793 -6.50609
LeftToes  -4.9116e-011 5.71383e-011 -3.31847e-011
46
root  65.6681 38.9344 55.1979 -1.4309 -44.812 5.50569
RightUpLeg  -19.5587 -4.07594 -7.85912
RightLeg  51.0602 -8.11394 -10.9557
RightFoot  -5.5914 -0.793251 14.9544
RightToes  2.91037e-010 0 -3.6325e-017
Spine  7.74469 -0.734969 -8.07154
Spine1  -1.2867 -1.08411 -2.91705
HEad  15.5805 -1.10903 -1.99039
LeftShoulder1  1.35197 -0.0508219 -31.9798
LeftArm  14.4965 4.05964 -29.5164
LeftForeArm  3.17896 -7.24536 -16.729
LeftHand  0.326273 -1.11665 -5.74007
RightShoulder  6.39844 7.9054 49.1398
RightArm  28.369 -5.51945 18.5324
RightForeArm  9.55068 10.0732 14.7426
RightHand  0.472124 4.67818 5.14073
LeftUpLeg  -7.49935 9.2724 -2.19619
LeftLeg  16.4703 8.2891 -2.68585
LeftFoot  -12.9707 -0.0104959 -6.19485
LeftToes  -4.9116e-011 5.71383e-011 -3.31847e-011
47
root  65.2856 39.0345 56.0876 -0.874202 -44.9307 4.35181
RightUpLeg  -21.5423 -5.74454 -5.02893
RightLeg  45.8464 -11.081 -12.2584
RightFoot  -6.11778 -0.683317 13.9977
RightToes  2.91037e-010 0 -3.6325e-017
Spine  7.82648 -1.14052 -7.69825
Spine1  -1.39437 -1.48708 -1.97832
HEad  15.1934 -0.660865 -1.94173
LeftShoulder1  1.39867 -0.193148 -31.7806
LeftArm  13.9377 1.61797 -29.8932
LeftForeArm  3.46883 -6.45936 -17.048
LeftHand  0.3257 -1.11786 -5.7286
RightShoulder  6.39849 7.90882 49.1255
RightArm  28.4038 -5.45593 18.7277
RightForeArm  9.5934 10.1959 14.6599
RightHand  0.460159 4.69896 4.99156
LeftUpLeg  -4.87924 8.97201 -1.7745
LeftLeg  14.743 8.66998 -2.64599
LeftFoot  -13.2812 -0.0129749 -5.46147
LeftToes  -4.9116e-011 5.71383e-011 -3.31847e-011
48
root  64.8788 39.0674 56.9629 -0.591452 -45.1331 3.55168
RightUpLeg  -22.402 -7.56443 -2.31708
RightLeg  37.3797 -13.0306 -10.7116
RightFoot  -5.61792 -0.735222 13.876
RightToes  2.91037e-010 0 -3.6325e-017
Spine  7.88601 -1.45359 -7.37335
Spine1  -1.36559 -1.76374 -1.30501
HEad  14.7817 -0.264269 -1.91063
LeftShoulder1  1.44747 -0.34635 -31.5439
LeftArm  14.507 -0.876753 -30.3851
LeftForeArm  3.1536 -6.23587 -17.208
LeftHand  0.320967 -1.08764 -5.62941
RightShoulder  6.48862 8.0354 49.2702
RightArm  28.2383 -5.24975 18.6926
RightForeArm  9.63393 10.1472 14.6795
RightHand  0.464533 4.6247 5.08402
LeftUpLeg  -2.31264 8.9325 -1.64981
LeftLeg  13.1948 8.8685 -2.50635
LeftFoot  -13.6614 -0.01054 -4.56057
LeftToes  -4.9116e-011 5.71383e-011 -3.31847e-011
49
root  64.431 39.0455 57.8441 -0.441711 -45.3493 3.12654
RightUpLeg  -22.2397 -10.0448 0.376686
RightLeg  25.9826 -13.0068 -7.01728
RightFoot  -4.48546 -0.87903 14.096
RightToes  2.91037e-010 0 -3.6325e-017
Spine  7.8332 -1.71876 -6.93257
Spine1  -1.39887 -1.91401 -1.1032
HEad  14.5512 -0.122531 -1.80055
LeftShoulder1  1.48234 -0.469694 -31.2548
LeftArm  14.521 -3.17948 -30.9714
LeftForeArm  3.22629 -6.12747 -17.2529
LeftHand  0.316028 -1.09651 -5.60205
RightShoulder  6.53344 8.06789 49.4706
RightArm  27.7338 -5.09607 18.6259
RightForeArm  10.1014 9.93749 14.7581
RightHand  0.459581 4.59019 4.99919
LeftUpLeg  0.100037 8.69894 -1.86464
LeftLeg  11.777 9.30856 -2.2118
LeftFoot  -14.3331 -0.0242311 -4.21511
LeftToes  -4.9116e-011 5.71383e-011 -3.31847e-011
50
root  63.932 38.95 58.747 -0.545281 -45.5178 3.25182
RightUpLeg  -21.3105 -12.9771 2.7627
RightLeg  13.1852 -10.9666 -2.81505
RightFoot  -3.26297 -1.03863 14.3225
RightToes  2.91037e-010 0 -3.6325e-017
Spine  7.51882 -1.92171 -6.85621
Spine1  -1.33186 -2.05278 -0.78268
HEad  14.4821 0.0190998 -1.93402
LeftShoulder1  1.50466 -0.530843 -31.2434
LeftArm  14.5038 -5.12552 -31.4938
LeftForeArm  3.30709 -6.47586 -17.0927
LeftHand  0.311076 -1.15276 -5.49188
RightShoulder  6.57278 8.12973 49.5035
RightArm  26.7776 -4.89147 18.5264
RightForeArm  10.9179 9.31865 15.0304
RightHand  0.455291 4.55421 5.01721
LeftUpLeg  2.39015 8.58054 -2.30747
LeftLeg  10.5561 9.55933 -2.24788
LeftFoot  -15.2415 -0.0461854 -4.03748
LeftToes  -4.9116e-011 5.71383e-011 -3.31847e-011
51
root  63.3632 38.7676 59.7019 -0.880639 -45.2882 3.70165
RightUpLeg  -19.3623 -3.88488 -0.6464
RightLeg  1.75532 -20.7258 3.11122
RightFoot  -2.34514 -1.08866 13.5753
RightToes  2.91037e-010 0 -3.6325e-017
Spine  7.22957 -2.20238 -6.86159
Spine1  -1.42474 -2.29523 -0.518133
HEad  14.4781 0.0520185 -2.20943
LeftShoulder1  1.52982 -0.595382 -31.2711
LeftArm  15.1231 -6.43575 -32.116
LeftForeArm  2.68062 -7.526 -16.6605
LeftHand  0.310367 -1.19815 -5.37918
RightShoulder  6.54322 8.09923 49.4108
RightArm  25.6154 -4.83529 18.4228
RightForeArm  11.8856 8.5232 15.3583
RightHand  0.454366 4.49739 5.09955
LeftUpLeg  4.54106 8.44644 -2.88446
LeftLeg  9.98848 9.31978 -2.32828
LeftFoot  -16.6129 -0.0878605 -4.06965
LeftToes  -4.9116e-011 5.71383e-011 -3.31847e-011
52
root  62.7216 38.5012 60.7179 -1.67795 -44.6354 4.29966
RightUpLeg  -19.1644 -1.97088 -1.18316
RightLeg  -3.48903 -21.3831 4.94861
RightFoot  -1.91536 -1.10981 13.2474
RightToes  2.91037e-010 0 -3.6325e-017
Spine  7.26189 -2.49069 -6.68961
Spine1  -1.56168 -2.54119 -0.445846
HEad  14.4491 -0.206796 -2.71692
LeftShoulder1  1.57596 -0.688229 -31.5477
LeftArm  16.1165 -7.65396 -32.7926
LeftForeArm  2.29035 -8.5703 -16.1916
LeftHand  0.319572 -1.46779 -5.29619
RightShoulder  6.43441 7.96545 49.157
RightArm  24.4936 -4.8221 18.2541
RightForeArm  12.8918 7.61871 15.7153
RightHand  0.448828 4.55778 4.95171
LeftUpLeg  6.89498 8.34286 -3.49511
LeftLeg  10.2005 8.68278 -2.20397
LeftFoot  -18.3574 -0.148824 -4.2209
LeftToes  -4.9116e-011 5.71383e-011 -3.31847e-011
53
root  62.0241 38.2293 61.7728 -2.33538 -43.9619 4.3371
RightUpLeg  -19.1517 -1.41722 -0.907848
RightLeg  -3.62712 -20.039 4.55124
RightFoot  -1.85228 -1.15666 13.7222
RightToes  2.91037e-010 0 -3.6325e-017
Spine  7.46071 -2.68504 -5.95553
Spine1  -1.36085 -2.76713 -0.332566
HEad  14.2385 -0.517594 -3.35519
LeftShoulder1  1.61785 -0.77167 -31.7958
LeftArm  18.7622 -8.26898 -33.7322
LeftForeArm  0.353158 -10.5261 -15.2824
LeftHand  0.322226 -1.61394 -5.21515
RightShoulder  6.48136 8.10498 48.9196
RightArm  23.4496 -4.81623 17.8771
RightForeArm  13.6214 6.63024 16.1054
RightHand  0.446243 4.53227 4.92424
LeftUpLeg  9.49407 8.52425 -3.45755
LeftLeg  10.7889 7.71456 -2.10439
LeftFoot  -20.1884 -0.235207 -4.60304
LeftToes  -4.9116e-011 5.71383e-011 -3.31847e-011
54
root  61.2908 38.1172 62.8083 -1.97477 -43.1528 3.2259
RightUpLeg  -19.8333 -0.887243 0.264457
RightLeg  0.490371 -18.7545 2.9747
RightFoot  0.495881 -0.772243 7.47114
RightToes  2.91037e-010 0 -3.6325e-017
Spine  7.6106 -2.86306 -4.21643
Spine1  -0.811319 -3.12307 0.206557
HEad  14.1696 -0.956795 -3.96692
LeftShoulder1  1.63789 -0.807242 -31.9491
LeftArm  20.7031 -8.32129 -34.9105
LeftForeArm  -0.00751492 -11.9085 -14.4506
LeftHand  0.321903 -1.90752 -4.9722
RightShoulder  6.49389 8.16818 48.748
RightArm  21.5896 -4.46485 17.355
RightForeArm  15.5259 4.81583 16.6699
RightHand  0.444709 4.4582 4.94821
LeftUpLeg  11.92 8.77401 -2.3635
LeftLeg  11.0875 6.61449 -1.97068
LeftFoot  -20.9514 -0.330109 -5.41812
LeftToes  -4.9116e-011 5.71383e-011 -3.31847e-011
55
root  60.4607 38.0245 63.8923 -1.46706 -42.2782 1.89984
RightUpLeg  -20.6371 -1.33955 1.80749
RightLeg  5.72933 -17.6503 0.813644
RightFoot  5.08141 -0.223335 1.78829
RightToes  2.91037e-010 0 -3.6325e-017
Spine  7.6677 -3.01285 -2.14063
Spine1  -0.493561 -3.39032 0.682591
HEad  14.6611 -1.51739 -4.3475
LeftShoulder1  1.63968 -0.806812 -31.9945
LeftArm  23.8376 -7.31377 -36.0499
LeftForeArm  -1.16608 -13.8649 -13.1492
LeftHand  0.329994 -2.24118 -4.84793
RightShoulder  6.37617 7.94171 48.8128
RightArm  19.255 -4.02129 16.6294
RightForeArm  17.7169 2.44707 17.22
RightHand  0.428889 4.42902 4.77841
LeftUpLeg  14.0258 10.2927 -0.454036
LeftLeg  12.4459 3.83299 -1.70468
LeftFoot  -21.2106 -0.490101 -7.14149
LeftToes  -4.9116e-011 5.71383e-011 -3.31847e-011
56
root  59.576 37.9286 65.0347 -0.792011 -42.1152 0.10492
RightUpLeg  -21.6032 -4.18143 4.58545
RightLeg  12.5186 -13.5211 -1.97785
RightFoot  5.56693 0.279996 -1.62628
RightToes  2.91037e-010 0 -3.6325e-017
Spine  7.92872 -2.99912 0.96964
Spine1  -0.62407 -3.17505 0.35573
HEad  15.4254 -2.06373 -4.73603
LeftShoulder1  1.62255 -0.70823 -32.4765
LeftArm  27.2316 -5.50242 -36.6369
LeftForeArm  -3.20157 -16.018 -11.505
LeftHand  0.332388 -2.39859 -4.77181
RightShoulder  6.35255 7.83855 49.0753
RightArm  15.5801 -3.43889 15.6624
RightForeArm  20.2002 -0.717017 17.5662
RightHand  0.42123 4.29456 4.76238
LeftUpLeg  15.3449 14.1792 2.68367
LeftLeg  16.2735 -0.93491 -1.12151
LeftFoot  -20.9576 -0.756681 -10.4635
LeftToes  -4.9116e-011 5.71383e-011 -3.31847e-011
